<svg width="16" height="16" viewBox="0 0 16 16" fill="none" xmlns="http://www.w3.org/2000/svg">
<path fill-rule="evenodd" clip-rule="evenodd" d="M15 8.00002C15 8.13263 14.9473 8.25981 14.8536 8.35357C14.7598 8.44734 14.6326 8.50002 14.5 8.50002L2.707 8.50002L5.854 11.646C5.94789 11.7399 6.00063 11.8672 6.00063 12C6.00063 12.1328 5.94789 12.2601 5.854 12.354C5.76011 12.4479 5.63277 12.5007 5.5 12.5007C5.36722 12.5007 5.23989 12.4479 5.146 12.354L1.146 8.35402C1.09944 8.30757 1.06249 8.2524 1.03729 8.19165C1.01208 8.13091 0.999106 8.06579 0.999106 8.00002C0.999106 7.93425 1.01208 7.86913 1.03729 7.80839C1.06249 7.74764 1.09944 7.69247 1.146 7.64602L5.146 3.64602C5.23989 3.55213 5.36722 3.49939 5.5 3.49939C5.63278 3.49939 5.76011 3.55213 5.854 3.64602C5.94789 3.73991 6.00063 3.86725 6.00063 4.00002C6.00063 4.1328 5.94789 4.26013 5.854 4.35402L2.707 7.50002L14.5 7.50002C14.6326 7.50002 14.7598 7.5527 14.8536 7.64647C14.9473 7.74024 15 7.86741 15 8.00002Z" fill="#ECEDFF"/>
</svg>
